# xmcd
#
# Track frame offsets: 
#        150
#        12687
#        30690
#        43675
#        55515
#        74050
#        89905
#        105360
#        117525
#        128375
#        138347
#        147327
#        161200
#
# Disc length: 2305 seconds
#
# Revision: 5
# Processed by: cddbd v1.5.2PL0 Copyright (c) Steve Scherf et al.
# Submitted via: ExactAudioCopy v1.0b3
#
DISCID=bf08ff0d
DTITLE=The Del McCoury Band - The Cold Hard Facts
DYEAR=1996
DGENRE=Bluegrass
TTITLE0=The Cold Hard Facts
TTITLE1=Blue Darlin'
TTITLE2=Smoking Gun
TTITLE3=Love Is A Long Road
TTITLE4=Henry Walker
TTITLE5=Baltimore Jonny
TTITLE6=Blackjack County Chains
TTITLE7=Hard On My Heart
TTITLE8=Snake In The House
TTITLE9=The First Time She Left
TTITLE10=Loggin' Man
TTITLE11=Member Of The Blues
TTITLE12=I'll Be There
EXTD=Rounder CD 0363
EXTT0=
EXTT1=
EXTT2=
EXTT3=
EXTT4=
EXTT5=
EXTT6=
EXTT7=
EXTT8=
EXTT9=
EXTT10=
EXTT11=
EXTT12=
PLAYORDER=
